<svg width="21" height="18" viewBox="0 0 21 18" fill="none" xmlns="http://www.w3.org/2000/svg">
<path d="M1.3767 10.4349L16.2013 10.3191L11.7065 15.8044C11.4963 16.0613 11.3968 16.3912 11.4298 16.7215C11.4629 17.0518 11.6258 17.3554 11.8827 17.5656C12.1396 17.7757 12.4695 17.8752 12.7998 17.8422C13.1301 17.8091 13.4337 17.6462 13.6439 17.3893L19.8351 9.84072C19.8767 9.78074 19.9138 9.71777 19.9462 9.65234C19.9457 9.58985 19.9454 9.55235 20.0324 9.48917C20.0879 9.3454 20.1164 9.19261 20.1164 9.0385C20.114 8.8844 20.0831 8.73207 20.0254 8.58919C20.0249 8.5267 20.0246 8.4892 19.9366 8.42738C19.9032 8.36247 19.8651 8.30009 19.8226 8.24077L13.5142 0.789811C13.3956 0.64963 13.2476 0.537307 13.0806 0.460833C12.9136 0.384358 12.7319 0.345609 12.5483 0.347342C12.2562 0.349052 11.974 0.452979 11.7505 0.641082C11.6248 0.747003 11.5212 0.876694 11.4456 1.02272C11.3701 1.16875 11.3241 1.32825 11.3102 1.49208C11.2964 1.65591 11.3151 1.82087 11.3651 1.97748C11.4151 2.1341 11.4956 2.27931 11.6018 2.4048L16.1817 7.81919L1.35718 7.93498C1.02567 7.93757 0.708763 8.07175 0.47618 8.30799C0.243598 8.54423 0.11439 8.8632 0.116979 9.19471C0.119569 9.52622 0.253743 9.84312 0.489987 10.0757C0.726232 10.3083 1.04519 10.4375 1.3767 10.4349Z" fill="#F53838"/>
</svg>
