<svg width="32" height="32" viewBox="0 0 32 32" fill="none" xmlns="http://www.w3.org/2000/svg">
<path d="M7.26001 17.3182L22.0846 17.2024L17.5898 22.6877C17.3796 22.9446 17.2801 23.2745 17.3131 23.6048C17.3462 23.9351 17.5091 24.2387 17.766 24.4489C18.0229 24.659 18.3528 24.7585 18.6831 24.7255C19.0134 24.6924 19.317 24.5295 19.5272 24.2726L25.7184 16.724C25.76 16.664 25.7971 16.6011 25.8295 16.5356C25.829 16.4731 25.8287 16.4356 25.9157 16.3725C25.9712 16.2287 25.9997 16.0759 25.9997 15.9218C25.9973 15.7677 25.9664 15.6154 25.9087 15.4725C25.9082 15.41 25.9079 15.3725 25.8199 15.3107C25.7865 15.2458 25.7484 15.1834 25.7059 15.1241L19.3975 7.67311C19.2789 7.53293 19.1309 7.42061 18.9639 7.34413C18.7969 7.26766 18.6152 7.22891 18.4316 7.23064C18.1395 7.23235 17.8573 7.33628 17.6338 7.52438C17.5081 7.6303 17.4045 7.75999 17.3289 7.90602C17.2534 8.05205 17.2074 8.21155 17.1935 8.37538C17.1797 8.53922 17.1984 8.70417 17.2484 8.86078C17.2984 9.0174 17.3789 9.16261 17.4851 9.2881L22.065 14.7025L7.24048 14.8183C6.90897 14.8209 6.59206 14.955 6.35948 15.1913C6.1269 15.4275 5.99769 15.7465 6.00028 16.078C6.00287 16.4095 6.13704 16.7264 6.37329 16.959C6.60953 17.1916 6.92849 17.3208 7.26001 17.3182Z" fill="#F53838"/>
</svg>
