<svg width="25" height="25" viewBox="0 0 25 25" fill="none" xmlns="http://www.w3.org/2000/svg">
<path d="M12.1819 2.6499C6.69527 2.6499 2.23149 7.14417 2.23149 12.6683C2.23149 18.1925 6.69527 22.6868 12.1819 22.6868C17.6686 22.6868 22.1324 18.1925 22.1324 12.6683C22.1324 7.14417 17.6686 2.6499 12.1819 2.6499ZM10.1929 17.0895L7.19741 14.0801C6.81047 13.6913 6.80969 13.0632 7.19566 12.6735V12.6735C7.58561 12.2797 8.22163 12.279 8.61248 12.6719L10.1909 14.2583L14.7503 9.66762C15.1407 9.27456 15.7765 9.27456 16.1669 9.66762V9.66762C16.5536 10.0569 16.5536 10.6853 16.1669 11.0746L10.1929 17.0895Z" fill="#2FAB73"/>
</svg>
