<svg width="507" height="416" viewBox="0 0 507 416" fill="none" xmlns="http://www.w3.org/2000/svg">
<path d="M378.768 294.2L339.243 270.839L308.197 317.357C326.334 332.597 356.805 343.68 372.551 340.296C404.864 333.35 470.162 240.977 479.222 233.945C510.067 210.003 520.093 200.918 481.498 219.521C444.7 237.257 464.19 219.521 455.174 219.521C444.344 220.283 447.933 229.961 451.953 236.896L378.768 294.2Z" fill="url(#paint0_linear_2_674)"/>
<path d="M154.503 258.81C165.654 251.013 209.717 236.969 229.068 230.922L249.542 233.171C262.441 236.391 290.11 241.88 302.837 247.075C315.565 252.27 338.662 268.837 360.209 282.653L355.081 300.536C350.537 316.379 338.47 328.961 322.829 334.162C318.805 359.931 315.334 401.825 315.907 414.813L166.167 414.696L159.311 350.931L128.476 354.256L102.429 334.162C135.044 277.364 140.564 268.556 154.503 258.81Z" fill="url(#paint1_linear_2_674)"/>
<path d="M111.665 405.334C64.2205 399.277 95.0779 350.863 103.49 334.875C113.662 343.496 126.25 348.761 139.531 349.948L155.824 351.406L149.129 366.956L221.409 383.993L231.549 412.316C224.326 411.078 170.664 412.866 111.665 405.334Z" fill="url(#paint2_linear_2_674)"/>
<path d="M234.114 103.814C236.449 99.5627 243.146 93.6106 251.253 103.814H234.114Z" fill="#30235B"/>
<ellipse cx="238.006" cy="249.464" rx="25.8438" ry="18.5423" fill="#CF0606"/>
<path d="M216.831 248.468L220.444 212.253H255.613L259.653 248.468C258.241 252.733 251.575 261.385 239.229 261.385C223.495 261.385 217.84 252.733 216.831 248.468Z" fill="url(#paint3_linear_2_674)"/>
<mask id="mask0_2_674" style="mask-type:alpha" maskUnits="userSpaceOnUse" x="216" y="212" width="44" height="50">
<path d="M216.831 248.468L220.444 212.253H255.613L259.661 248.541C258.249 252.806 251.56 261.386 239.214 261.386C223.48 261.386 217.84 252.733 216.831 248.468Z" fill="url(#paint4_linear_2_674)"/>
</mask>
<g mask="url(#mask0_2_674)">
<path opacity="0.1" d="M268.289 213.639C236.488 253.254 218.717 221.402 209.538 216.623L215.845 189.842L253.5 185.315L268.289 213.639Z" fill="black"/>
</g>
<path d="M237.397 226.791C199.468 226.791 192.946 171.976 204.665 146.903C231.032 114.456 263.991 133.384 277.175 146.903C280.349 167.797 283.849 226.791 237.397 226.791Z" fill="url(#paint5_linear_2_674)"/>
<path d="M277.822 184.856L270.392 179.345L271.541 175.242L280.028 180.876L277.822 184.856Z" fill="#111111"/>
<path d="M200.403 183.258L207.834 177.746L206.685 173.643L198.197 179.278L200.403 183.258Z" fill="#111111"/>
<path d="M207.203 150.198C234.093 167.836 263.903 157.547 275.446 150.198C273.016 157.916 276.459 172.752 278.485 179.205C295.981 156.264 290.261 143.876 285.214 140.55C284.373 129.116 274.05 100.529 239.393 101.885C204.736 103.24 198.012 127.987 198.993 137.162C185.87 155.117 193.678 172.672 200.007 179.205C207.203 165.139 207.039 155.271 207.203 150.198Z" fill="#30235B"/>
<g filter="url(#filter0_d_2_674)">
<path d="M242.147 119.538C201.991 118.184 193.057 144.781 191.861 160.214C191.766 161.442 190.762 162.409 189.53 162.409C188.217 162.409 187.17 161.314 187.286 160.006C189.033 140.218 199.506 105.615 242.147 108C285.198 110.408 293.612 144.921 292.287 164.149C292.217 165.172 291.354 165.945 290.329 165.945C289.212 165.945 288.315 165.038 288.271 163.922C287.644 147.968 277.112 120.558 242.147 119.538Z" fill="white"/>
</g>
<g filter="url(#filter1_d_2_674)">
<rect width="5.44971" height="21.0474" rx="2.72486" transform="matrix(0.984437 0.175736 -0.173431 0.984846 293.092 172.256)" fill="#24C28A"/>
</g>
<g filter="url(#filter2_d_2_674)">
<rect width="16.7867" height="43.845" rx="8.39335" transform="matrix(0.984437 0.175736 -0.173431 0.984846 281.386 158.608)" fill="white"/>
</g>
<g filter="url(#filter3_d_2_674)">
<rect width="5.44971" height="21.0474" rx="2.72486" transform="matrix(-0.984437 0.175736 0.173431 0.984846 184.721 172.256)" fill="#24C28A"/>
</g>
<g filter="url(#filter4_d_2_674)">
<rect width="16.7867" height="43.845" rx="8.39335" transform="matrix(-0.984437 0.175736 0.173431 0.984846 196.275 158.608)" fill="white"/>
</g>
<mask id="mask1_2_674" style="mask-type:alpha" maskUnits="userSpaceOnUse" x="181" y="159" width="22" height="45">
<rect width="16.7867" height="43.845" rx="8.39335" transform="matrix(-0.984437 0.175736 0.173431 0.984846 196.275 158.608)" fill="white"/>
</mask>
<g mask="url(#mask1_2_674)">
<rect width="21.8358" height="47.5945" transform="matrix(0.984303 -0.176487 0.174173 0.984715 188.372 158.608)" fill="#E8E8E8"/>
</g>
<mask id="mask2_2_674" style="mask-type:alpha" maskUnits="userSpaceOnUse" x="275" y="159" width="22" height="45">
<rect width="16.7867" height="43.845" rx="8.39335" transform="matrix(0.984437 0.175736 -0.173431 0.984846 281.386 158.608)" fill="white"/>
</mask>
<g mask="url(#mask2_2_674)">
<rect width="21.8358" height="47.5945" transform="matrix(-0.984303 -0.176487 -0.174173 0.984715 290.308 158.608)" fill="#E8E8E8"/>
</g>
<path opacity="0.5" d="M221.054 191.259C215.688 191.259 212.986 187.001 212.299 185.1C211.509 183.51 210.886 179.368 212.755 176.077C215.133 171.893 226.306 170.726 230.22 176.637C234.134 182.548 230.22 191.259 221.054 191.259Z" fill="#E6FCFF"/>
<path opacity="0.5" d="M256.607 191.259C261.973 191.259 264.675 187.001 265.362 185.1C266.152 183.51 266.775 179.368 264.906 176.077C262.528 171.893 251.355 170.726 247.441 176.637C243.527 182.548 247.441 191.259 256.607 191.259Z" fill="#E6FCFF"/>
<path fill-rule="evenodd" clip-rule="evenodd" d="M232.992 175.334C224.241 167.596 216.337 170.869 211.653 172.809C211.132 173.025 210.651 173.224 210.213 173.39L207.286 173.395C206.731 173.396 206.283 173.849 206.288 174.404L206.31 176.89C206.315 177.438 206.761 177.881 207.31 177.881L209.425 177.881C207.89 191.156 217.614 194.709 225.39 192.317C232.323 190.184 234.179 184.148 234.549 180.361C236.032 177.053 242.534 178.582 242.792 180.288C242.798 180.328 242.804 180.373 242.812 180.422C243.117 182.5 244.655 192.967 256.36 192.983C265.947 192.996 268.547 184.372 268.648 180.059L271.125 180.037C271.677 180.032 272.121 179.58 272.116 179.028L272.089 175.988C272.084 175.435 271.633 174.992 271.08 174.997L268.604 175.019C262.358 168.648 248.943 169.244 244.219 175.235C239.005 174.024 234.562 174.797 232.992 175.334ZM221.054 191.259C215.688 191.259 212.986 187.001 212.299 185.1C211.509 183.51 210.886 179.368 212.755 176.077C215.133 171.893 226.306 170.726 230.22 176.637C234.134 182.548 230.22 191.259 221.054 191.259ZM265.363 185.1C264.677 187.001 261.974 191.259 256.609 191.259C247.442 191.259 243.528 182.548 247.442 176.637C251.356 170.726 262.529 171.893 264.907 176.077C266.776 179.367 266.153 183.51 265.363 185.1Z" fill="#111111"/>
<path d="M162.995 409.44C162.995 408.884 163.445 408.434 164.001 408.434H317.609C318.582 408.434 319.371 409.222 319.371 410.195V410.195C319.371 413.113 317.005 415.479 314.087 415.479H169.033C165.698 415.479 162.995 412.775 162.995 409.44V409.44Z" fill="#B4B4B4"/>
<rect x="162.995" y="305.71" width="156.376" height="105.34" rx="2.94666" fill="url(#paint6_linear_2_674)"/>
<ellipse cx="241.183" cy="358.38" rx="11.1211" ry="11.1971" fill="white"/>
<path fill-rule="evenodd" clip-rule="evenodd" d="M130.073 170.188C130.271 166.773 130.947 163.915 131.511 162.326C132.618 165.113 133.165 167.788 133.35 170.228C135.774 170.415 138.431 170.966 141.199 172.081C139.621 172.648 136.782 173.329 133.39 173.529C133.201 177.154 132.275 179.971 131.511 181.414C130.581 178.792 130.156 176.096 130.046 173.556C127.523 173.444 124.845 173.017 122.241 172.081C123.674 171.311 126.472 170.379 130.073 170.188Z" fill="url(#paint7_linear_2_674)"/>
<path fill-rule="evenodd" clip-rule="evenodd" d="M103.318 147.72C103.45 145.447 103.9 143.544 104.275 142.487C105.012 144.342 105.377 146.123 105.5 147.747C107.113 147.871 108.882 148.238 110.724 148.98C109.674 149.358 107.784 149.811 105.526 149.944C105.401 152.357 104.784 154.232 104.275 155.192C103.656 153.447 103.374 151.652 103.3 149.962C101.621 149.888 99.8382 149.603 98.105 148.98C99.0588 148.468 100.921 147.847 103.318 147.72Z" fill="url(#paint8_linear_2_674)"/>
<path fill-rule="evenodd" clip-rule="evenodd" d="M60.2096 131.713C60.4079 128.298 61.0841 125.44 61.6478 123.851C62.755 126.638 63.3023 129.313 63.4873 131.753C65.9108 131.94 68.5684 132.491 71.3364 133.606C69.7583 134.173 66.919 134.854 63.5272 135.054C63.338 138.679 62.412 141.496 61.6478 142.939C60.7178 140.317 60.2934 137.62 60.1828 135.081C57.6601 134.969 54.9817 134.542 52.3778 133.606C53.8108 132.836 56.6086 131.904 60.2096 131.713Z" fill="url(#paint9_linear_2_674)"/>
<path fill-rule="evenodd" clip-rule="evenodd" d="M63.9002 210.198C64.192 205.174 65.1869 200.968 66.0161 198.631C67.6451 202.731 68.4503 206.668 68.7226 210.257C72.2881 210.532 76.198 211.342 80.2704 212.982C77.9486 213.817 73.7713 214.819 68.7812 215.113C68.5029 220.447 67.1405 224.591 66.0161 226.714C64.6479 222.857 64.0236 218.889 63.8607 215.152C60.1493 214.989 56.2088 214.36 52.3778 212.982C54.4861 211.85 58.6024 210.479 63.9002 210.198Z" fill="url(#paint10_linear_2_674)"/>
<ellipse cx="94.2182" cy="180.489" rx="1.83228" ry="1.8448" fill="#2F235A"/>
<ellipse cx="136.267" cy="127.594" rx="1.83228" ry="1.8448" fill="#FE9076"/>
<ellipse cx="44.1059" cy="173.165" rx="1.83228" ry="1.8448" fill="#FFA400"/>
<ellipse cx="126.223" cy="208.942" rx="1.83228" ry="1.8448" fill="#23BB86"/>
<path d="M131.777 119.895C127.635 114.167 115.966 101.931 102.429 98.8163" stroke="#FE9076" stroke-width="1.60277" stroke-linecap="round"/>
<path d="M36.375 168.221C30.2523 164.727 14.6055 158.437 0.999993 161.229" stroke="#FFA400" stroke-width="1.60277" stroke-linecap="round"/>
<path d="M119.935 214.301C116.797 217.088 109.249 225.003 104.155 234.369" stroke="#23BB86" stroke-width="1.60277" stroke-linecap="round"/>
<path fill-rule="evenodd" clip-rule="evenodd" d="M346.345 170.188C346.147 166.773 345.471 163.915 344.907 162.326C343.8 165.113 343.253 167.788 343.068 170.228C340.644 170.415 337.987 170.966 335.219 172.081C336.797 172.648 339.636 173.329 343.028 173.529C343.217 177.154 344.143 179.971 344.907 181.414C345.837 178.792 346.262 176.096 346.372 173.556C348.895 173.444 351.573 173.017 354.177 172.081C352.744 171.311 349.946 170.379 346.345 170.188Z" fill="url(#paint11_linear_2_674)"/>
<path fill-rule="evenodd" clip-rule="evenodd" d="M373.1 147.72C372.968 145.447 372.518 143.544 372.143 142.487C371.406 144.342 371.041 146.123 370.918 147.747C369.305 147.871 367.536 148.238 365.694 148.98C366.744 149.358 368.634 149.811 370.892 149.944C371.017 152.357 371.634 154.232 372.143 155.192C372.762 153.447 373.044 151.652 373.118 149.962C374.797 149.888 376.58 149.603 378.313 148.98C377.359 148.468 375.497 147.847 373.1 147.72Z" fill="url(#paint12_linear_2_674)"/>
<path fill-rule="evenodd" clip-rule="evenodd" d="M416.208 131.713C416.01 128.298 415.334 125.44 414.77 123.851C413.663 126.638 413.116 129.313 412.931 131.753C410.507 131.94 407.85 132.491 405.082 133.606C406.66 134.173 409.499 134.854 412.891 135.054C413.08 138.679 414.006 141.496 414.77 142.939C415.7 140.317 416.125 137.62 416.235 135.081C418.758 134.969 421.436 134.542 424.04 133.606C422.607 132.836 419.809 131.904 416.208 131.713Z" fill="url(#paint13_linear_2_674)"/>
<path fill-rule="evenodd" clip-rule="evenodd" d="M412.518 210.198C412.226 205.174 411.231 200.968 410.402 198.631C408.773 202.731 407.968 206.668 407.695 210.257C404.13 210.532 400.22 211.342 396.148 212.982C398.469 213.817 402.647 214.819 407.637 215.113C407.915 220.447 409.277 224.591 410.402 226.714C411.77 222.857 412.394 218.889 412.557 215.152C416.269 214.989 420.209 214.36 424.04 212.982C421.932 211.85 417.816 210.479 412.518 210.198Z" fill="url(#paint14_linear_2_674)"/>
<ellipse rx="1.83228" ry="1.8448" transform="matrix(-1 0 0 1 382.2 180.489)" fill="#2F235A"/>
<ellipse rx="1.83228" ry="1.8448" transform="matrix(-1 0 0 1 340.151 127.594)" fill="#FE9076"/>
<ellipse rx="1.83228" ry="1.8448" transform="matrix(-1 0 0 1 432.312 173.165)" fill="#FFA400"/>
<ellipse rx="1.83228" ry="1.8448" transform="matrix(-1 0 0 1 350.195 208.942)" fill="#23BB86"/>
<path d="M344.641 119.895C348.783 114.167 360.452 101.931 373.989 98.8163" stroke="#FE9076" stroke-width="1.60277" stroke-linecap="round"/>
<path d="M440.043 168.221C446.166 164.727 461.812 158.437 475.418 161.229" stroke="#FFA400" stroke-width="1.60277" stroke-linecap="round"/>
<path d="M356.483 214.301C359.621 217.088 367.169 225.003 372.263 234.369" stroke="#23BB86" stroke-width="1.60277" stroke-linecap="round"/>
<path d="M268.096 56.2771C266.018 53.0458 261.813 54.8061 261.813 58.3261C261.813 60.9693 267.578 65.1041 268.096 65.6417C268.618 65.1041 274.096 60.9693 274.096 58.3261C274.096 54.8328 270.178 53.0458 268.096 56.2771V56.2771Z" fill="#FFBCBC"/>
<path d="M281.684 60.1092C281.684 67.7471 275.535 73.9351 267.955 73.9351C260.374 73.9351 254.225 67.7471 254.225 60.1092C254.225 52.4713 260.374 46.2833 267.955 46.2833C275.535 46.2833 281.684 52.4713 281.684 60.1092Z" stroke="#F7F7F7" stroke-width="0.649684"/>
<path d="M218.819 37.0085C216.98 34.1487 213.258 35.7066 213.258 38.822C213.258 41.1613 218.36 44.8207 218.819 45.2966C219.28 44.8207 224.129 41.1613 224.129 38.822C224.129 35.7303 220.661 34.1487 218.819 37.0085V37.0085Z" fill="#FFBCBC"/>
<path d="M230.845 40.4001C230.845 47.16 225.403 52.6366 218.693 52.6366C211.984 52.6366 206.542 47.16 206.542 40.4001C206.542 33.6402 211.984 28.1636 218.693 28.1636C225.403 28.1636 230.845 33.6402 230.845 40.4001Z" stroke="#F7F7F7" stroke-width="0.574998"/>
<path d="M251.339 15.9948C250.081 14.0388 247.536 15.1044 247.536 17.235C247.536 18.835 251.026 21.3378 251.339 21.6632C251.655 21.3378 254.971 18.835 254.971 17.235C254.971 15.1205 252.599 14.0388 251.339 15.9948V15.9948Z" fill="#FFBCBC"/>
<path d="M259.564 18.3145C259.564 22.9378 255.842 26.6834 251.253 26.6834C246.665 26.6834 242.943 22.9378 242.943 18.3145C242.943 13.6912 246.665 9.94553 251.253 9.94553C255.842 9.94553 259.564 13.6912 259.564 18.3145Z" stroke="#F7F7F7" stroke-width="0.393259"/>
<path d="M193.895 5.11065C192.866 3.51024 190.784 4.38209 190.784 6.12548C190.784 7.43464 193.639 9.48251 193.895 9.74879C194.154 9.48251 196.867 7.43464 196.867 6.12548C196.867 4.39531 194.926 3.51024 193.895 5.11065V5.11065Z" fill="#FFBCBC"/>
<path d="M200.626 7.00866C200.626 10.7916 197.58 13.8564 193.825 13.8564C190.071 13.8564 187.025 10.7916 187.025 7.00866C187.025 3.22571 190.071 0.16089 193.825 0.16089C197.58 0.16089 200.626 3.22571 200.626 7.00866Z" stroke="#F7F7F7" stroke-width="0.321779"/>
<path d="M188.834 80.1347C186.587 76.6405 182.04 78.5441 182.04 82.3504C182.04 85.2087 188.274 89.6798 188.834 90.2612C189.398 89.6798 195.322 85.2087 195.322 82.3504C195.322 78.5729 191.085 76.6405 188.834 80.1347V80.1347Z" fill="#FFBCBC"/>
<path d="M203.528 84.2785C203.528 92.5378 196.878 99.2292 188.681 99.2292C180.483 99.2292 173.834 92.5378 173.834 84.2785C173.834 76.0191 180.483 69.3277 188.681 69.3277C196.878 69.3277 203.528 76.0191 203.528 84.2785Z" stroke="#F7F7F7" stroke-width="0.702541"/>
<defs>
<filter id="filter0_d_2_674" x="153.277" y="77.8832" width="173.139" height="126.061" filterUnits="userSpaceOnUse" color-interpolation-filters="sRGB">
<feFlood flood-opacity="0" result="BackgroundImageFix"/>
<feColorMatrix in="SourceAlpha" type="matrix" values="0 0 0 0 0 0 0 0 0 0 0 0 0 0 0 0 0 0 127 0" result="hardAlpha"/>
<feOffset dy="4"/>
<feGaussianBlur stdDeviation="17"/>
<feColorMatrix type="matrix" values="0 0 0 0 0.0386285 0 0 0 0 0.0648437 0 0 0 0 0.104167 0 0 0 0.13 0"/>
<feBlend mode="normal" in2="BackgroundImageFix" result="effect1_dropShadow_2_674"/>
<feBlend mode="normal" in="SourceGraphic" in2="effect1_dropShadow_2_674" result="shape"/>
</filter>
<filter id="filter1_d_2_674" x="255.873" y="142.692" width="76.1535" height="88.8141" filterUnits="userSpaceOnUse" color-interpolation-filters="sRGB">
<feFlood flood-opacity="0" result="BackgroundImageFix"/>
<feColorMatrix in="SourceAlpha" type="matrix" values="0 0 0 0 0 0 0 0 0 0 0 0 0 0 0 0 0 0 127 0" result="hardAlpha"/>
<feOffset dy="4"/>
<feGaussianBlur stdDeviation="17"/>
<feColorMatrix type="matrix" values="0 0 0 0 0.0386285 0 0 0 0 0.0648437 0 0 0 0 0.104167 0 0 0 0.13 0"/>
<feBlend mode="normal" in2="BackgroundImageFix" result="effect1_dropShadow_2_674"/>
<feBlend mode="normal" in="SourceGraphic" in2="effect1_dropShadow_2_674" result="shape"/>
</filter>
<filter id="filter2_d_2_674" x="241.109" y="129.951" width="89.4755" height="111.444" filterUnits="userSpaceOnUse" color-interpolation-filters="sRGB">
<feFlood flood-opacity="0" result="BackgroundImageFix"/>
<feColorMatrix in="SourceAlpha" type="matrix" values="0 0 0 0 0 0 0 0 0 0 0 0 0 0 0 0 0 0 127 0" result="hardAlpha"/>
<feOffset dy="4"/>
<feGaussianBlur stdDeviation="17"/>
<feColorMatrix type="matrix" values="0 0 0 0 0.0386285 0 0 0 0 0.0648437 0 0 0 0 0.104167 0 0 0 0.13 0"/>
<feBlend mode="normal" in2="BackgroundImageFix" result="effect1_dropShadow_2_674"/>
<feBlend mode="normal" in="SourceGraphic" in2="effect1_dropShadow_2_674" result="shape"/>
</filter>
<filter id="filter3_d_2_674" x="145.787" y="142.692" width="76.1536" height="88.8141" filterUnits="userSpaceOnUse" color-interpolation-filters="sRGB">
<feFlood flood-opacity="0" result="BackgroundImageFix"/>
<feColorMatrix in="SourceAlpha" type="matrix" values="0 0 0 0 0 0 0 0 0 0 0 0 0 0 0 0 0 0 127 0" result="hardAlpha"/>
<feOffset dy="4"/>
<feGaussianBlur stdDeviation="17"/>
<feColorMatrix type="matrix" values="0 0 0 0 0.0386285 0 0 0 0 0.0648437 0 0 0 0 0.104167 0 0 0 0.13 0"/>
<feBlend mode="normal" in2="BackgroundImageFix" result="effect1_dropShadow_2_674"/>
<feBlend mode="normal" in="SourceGraphic" in2="effect1_dropShadow_2_674" result="shape"/>
</filter>
<filter id="filter4_d_2_674" x="147.077" y="129.951" width="89.4755" height="111.444" filterUnits="userSpaceOnUse" color-interpolation-filters="sRGB">
<feFlood flood-opacity="0" result="BackgroundImageFix"/>
<feColorMatrix in="SourceAlpha" type="matrix" values="0 0 0 0 0 0 0 0 0 0 0 0 0 0 0 0 0 0 127 0" result="hardAlpha"/>
<feOffset dy="4"/>
<feGaussianBlur stdDeviation="17"/>
<feColorMatrix type="matrix" values="0 0 0 0 0.0386285 0 0 0 0 0.0648437 0 0 0 0 0.104167 0 0 0 0.13 0"/>
<feBlend mode="normal" in2="BackgroundImageFix" result="effect1_dropShadow_2_674"/>
<feBlend mode="normal" in="SourceGraphic" in2="effect1_dropShadow_2_674" result="shape"/>
</filter>
<linearGradient id="paint0_linear_2_674" x1="388.85" y1="158.613" x2="391.52" y2="334.804" gradientUnits="userSpaceOnUse">
<stop stop-color="#FFEFE0"/>
<stop offset="1" stop-color="#FFBE99"/>
</linearGradient>
<linearGradient id="paint1_linear_2_674" x1="241.079" y1="200.577" x2="228.573" y2="449.364" gradientUnits="userSpaceOnUse">
<stop stop-color="#FF9F81"/>
<stop offset="1" stop-color="#F53838"/>
</linearGradient>
<linearGradient id="paint2_linear_2_674" x1="226.089" y1="288.013" x2="107.706" y2="344.365" gradientUnits="userSpaceOnUse">
<stop offset="0.0677966" stop-color="#FFEFE0"/>
<stop offset="1" stop-color="#FFBE99"/>
</linearGradient>
<linearGradient id="paint3_linear_2_674" x1="237.029" y1="173.294" x2="239.127" y2="239.802" gradientUnits="userSpaceOnUse">
<stop stop-color="#FFEFE0"/>
<stop offset="1" stop-color="#FFBE99"/>
</linearGradient>
<linearGradient id="paint4_linear_2_674" x1="237.029" y1="173.294" x2="234.09" y2="249.062" gradientUnits="userSpaceOnUse">
<stop stop-color="#FFEFE0"/>
<stop offset="1" stop-color="#FFBE99"/>
</linearGradient>
<linearGradient id="paint5_linear_2_674" x1="240.469" y1="137.837" x2="240.469" y2="217.702" gradientUnits="userSpaceOnUse">
<stop stop-color="#FFEFE0"/>
<stop offset="1" stop-color="#FFBE99"/>
</linearGradient>
<linearGradient id="paint6_linear_2_674" x1="273.472" y1="226.651" x2="214.92" y2="435.323" gradientUnits="userSpaceOnUse">
<stop offset="0.0171777" stop-color="white"/>
<stop offset="1" stop-color="#D7D7D7"/>
</linearGradient>
<linearGradient id="paint7_linear_2_674" x1="131.72" y1="164.357" x2="131.72" y2="182.28" gradientUnits="userSpaceOnUse">
<stop stop-color="#FFE89E"/>
<stop offset="1" stop-color="#FFBF1A"/>
</linearGradient>
<linearGradient id="paint8_linear_2_674" x1="104.415" y1="143.839" x2="104.415" y2="155.769" gradientUnits="userSpaceOnUse">
<stop stop-color="#FFE89E"/>
<stop offset="1" stop-color="#FFBF1A"/>
</linearGradient>
<linearGradient id="paint9_linear_2_674" x1="61.8571" y1="125.882" x2="61.8571" y2="143.805" gradientUnits="userSpaceOnUse">
<stop stop-color="#FFE89E"/>
<stop offset="1" stop-color="#FFBF1A"/>
</linearGradient>
<linearGradient id="paint10_linear_2_674" x1="66.3241" y1="201.62" x2="66.3241" y2="227.988" gradientUnits="userSpaceOnUse">
<stop stop-color="#FFE89E"/>
<stop offset="1" stop-color="#FFBF1A"/>
</linearGradient>
<linearGradient id="paint11_linear_2_674" x1="344.698" y1="164.357" x2="344.698" y2="182.28" gradientUnits="userSpaceOnUse">
<stop stop-color="#FFE89E"/>
<stop offset="1" stop-color="#FFBF1A"/>
</linearGradient>
<linearGradient id="paint12_linear_2_674" x1="372.003" y1="143.839" x2="372.003" y2="155.769" gradientUnits="userSpaceOnUse">
<stop stop-color="#FFE89E"/>
<stop offset="1" stop-color="#FFBF1A"/>
</linearGradient>
<linearGradient id="paint13_linear_2_674" x1="414.561" y1="125.882" x2="414.561" y2="143.805" gradientUnits="userSpaceOnUse">
<stop stop-color="#FFE89E"/>
<stop offset="1" stop-color="#FFBF1A"/>
</linearGradient>
<linearGradient id="paint14_linear_2_674" x1="410.094" y1="201.62" x2="410.094" y2="227.988" gradientUnits="userSpaceOnUse">
<stop stop-color="#FFE89E"/>
<stop offset="1" stop-color="#FFBF1A"/>
</linearGradient>
</defs>
</svg>
